#!OML:ASF I:\Actors\actors\Patient Classification 1\Patient 1\Session 1\Subject1.ASF
:FULLY-SPECIFIED
:DEGREES
232
root 0.0900615 17.6128 7.2312 7.95817 -0.34681 -8.1719
lowerback 8.92973 3.23567 3.235
upperback -5.83847 4.93528 1.06999
thorax -11.1391 2.17276 -1.55663
lowerneck -11.826 -9.3394 -7.57507
upperneck 12.4428 -14.7422 19.9872
head 7.96811 -5.94418 6.1507
rclavicle 1.79652e-014 1.82882e-014
rhumerus -18.3363 49.7472 -105.408
rradius 90.5319
rwrist -21.8784
rhand -11.7787 -38.8013
rfingers 7.12502
rthumb 14.2703 -68.291
lclavicle 1.79652e-014 1.82882e-014
lhumerus -35.2687 -27.0232 97.5534
lradius 73.3246
lwrist 4.87095
lhand -49.1194 -56.7822
lfingers 7.12502
lthumb -21.7436 -27.9834
rfemur -2.65025 23.3714 24.8382
rtibia 1.90677
rfoot -14.5194 -28.0168
rtoes 10.0308
lfemur -2.53206 -28.76 -8.92378
ltibia 2.12029
lfoot -8.91868 28.1517
ltoes -8.75829
233
root 0.0713659 17.612 7.24687 8.28066 -1.67546 -8.18608
lowerback 8.82686 3.42246 3.21924
upperback -5.83209 5.17751 1.05198
thorax -11.0591 2.2919 -1.60204
lowerneck -11.678 -9.31374 -7.28808
upperneck 12.0098 -14.6353 19.7582
head 7.74088 -5.93214 6.03819
rclavicle -4.16205e-016 1.63003e-014
rhumerus -17.5224 52.6312 -107.404
rradius 90.8511
rwrist -23.4177
rhand -10.6885 -38.5978
rfingers 7.12502
rthumb 15.3206 -68.0103
lclavicle -4.16205e-016 1.63003e-014
lhumerus -37.3832 -24.8946 94.0516
lradius 75.8711
lwrist 4.66319
lhand -49.641 -57.579
lfingers 7.12502
lthumb -22.2445 -28.8392
rfemur -3.01715 23.5712 24.6588
rtibia 1.79969
rfoot -13.9902 -27.0159
rtoes 9.26289
lfemur -2.14436 -29.0234 -9.10238
ltibia 1.91405
lfoot -9.37418 29.6675
ltoes -7.52755
234
root 0.0513527 17.6119 7.26162 8.62367 -2.92371 -8.21643
lowerback 8.75397 3.57363 3.23535
upperback -5.82096 5.37614 1.02315
thorax -10.9898 2.38692 -1.67024
lowerneck -11.517 -9.26545 -6.98264
upperneck 11.4878 -14.4951 19.5893
head 7.48438 -5.9049 5.94905
rclavicle 2.25745e-014 -1.23246e-014
rhumerus -16.5244 55.5714 -109.125
rradius 91.2285
rwrist -25.1611
rhand -9.81663 -38.4044
rfingers 7.12502
rthumb 16.1602 -67.7508
lclavicle 2.25745e-014 -1.23246e-014
lhumerus -39.6187 -23.0198 90.4031
lradius 78.4473
lwrist 4.31981
lhand -50.1269 -58.4749
lfingers 7.12502
lthumb -22.7109 -29.7914
rfemur -3.37921 23.8142 24.4995
rtibia 1.65509
rfoot -13.5419 -26.1097
rtoes 8.67382
lfemur -1.80585 -29.3181 -9.24181
ltibia 1.69796
lfoot -9.8698 31.1384
ltoes -6.31051
235
root 0.0307465 17.6124 7.27485 8.98325 -4.09908 -8.2668
lowerback 8.71482 3.69782 3.27209
upperback -5.80744 5.54296 0.996831
thorax -10.9376 2.46471 -1.74355
lowerneck -11.3338 -9.2039 -6.71069
upperneck 10.8934 -14.3302 19.4895
head 7.20862 -5.86822 5.89364
rclavicle 7.01337e-015 -2.26615e-014
rhumerus -15.2586 58.5862 -110.432
rradius 91.6611
rwrist -26.9711
rhand -9.18749 -38.2192
rfingers 7.12502
rthumb 16.766 -67.5153
lclavicle 7.01337e-015 -2.26615e-014
lhumerus -41.8993 -21.3357 86.6503
lradius 80.9769
lwrist 3.89994
lhand -50.5713 -59.3957
lfingers 7.12502
lthumb -23.1373 -30.7651
rfemur -3.7462 24.0774 24.3597
rtibia 1.49034
rfoot -13.1484 -25.2666
rtoes 8.26104
lfemur -1.51933 -29.6043 -9.33115
ltibia 1.47877
lfoot -10.4036 32.5288
ltoes -5.11742
236
root 0.0109446 17.6131 7.28603 9.36965 -5.19794 -8.33702
lowerback 8.69373 3.79936 3.32418
upperback -5.79616 5.68385 0.985827
thorax -10.8999 2.52914 -1.80571
lowerneck -11.1363 -9.13466 -6.51393
upperneck 10.2647 -14.1483 19.4599
head 6.93132 -5.82481 5.8776
rclavicle -4.16454e-014 -3.37934e-014
rhumerus -13.7094 61.5529 -111.305
rradius 92.151
rwrist -28.6341
rhand -8.71196 -38.0433
rfingers 7.12502
rthumb 17.2237 -67.3
lclavicle -4.16454e-014 -3.37934e-014
lhumerus -44.1405 -19.7611 82.8412
lradius 83.3767
lwrist 3.51278
lhand -50.9535 -60.255
lfingers 7.12502
lthumb -23.504 -31.6709
rfemur -4.14983 24.3155 24.222
rtibia 1.32451
rfoot -12.7711 -24.451
rtoes 7.94091
lfemur -1.31571 -29.8806 -9.36015
ltibia 1.27935
lfoot -10.9785 33.8312
ltoes -3.92826
237
root -0.00772966 17.614 7.29525 9.77914 -6.23517 -8.42365
lowerback 8.68213 3.89117 3.36933
upperback -5.787 5.81389 1.00053
thorax -10.8741 2.58972 -1.83542
lowerneck -10.9304 -9.06873 -6.41372
upperneck 9.63549 -13.9646 19.4843
head 6.66597 -5.78141 5.89643
rclavicle -3.56446e-014 -1.63003e-014
rhumerus -11.8302 64.4414 -111.647
rradius 92.6985
rwrist -30.0558
rhand -8.35036 -37.8267
rfingers 7.12502
rthumb 17.5717 -67.0526
lclavicle -3.56446e-014 -1.63003e-014
lhumerus -46.2712 -18.2255 79.0313
lradius 85.5781
lwrist 3.26367
lhand -51.2464 -61.0002
lfingers 7.12502
lthumb -23.7849 -32.4524
rfemur -4.59701 24.5147 24.0809
rtibia 1.17581
rfoot -12.3977 -23.6395
rtoes 7.64053
lfemur -1.18122 -30.1524 -9.34081
ltibia 1.09756
lfoot -11.5903 35.0602
ltoes -2.7291
238
root -0.0255668 17.6152 7.30387 10.2004 -7.23946 -8.51624
lowerback 8.66365 3.99226 3.3791
upperback -5.77754 5.95413 1.04225
thorax -10.8498 2.65913 -1.8179
lowerneck -10.7264 -9.0158 -6.39579
upperneck 9.04303 -13.7958 19.5256
head 6.42337 -5.74477 5.93276
rclavicle -5.03919e-014 -2.8625e-014
rhumerus -9.72144 67.0834 -111.555
rradius 93.2935
rwrist -31.1075
rhand -7.98936 -37.533
rfingers 7.12502
rthumb 17.9191 -66.7275
lclavicle -5.03919e-014 -2.8625e-014
lhumerus -48.2395 -16.6915 75.2861
lradius 87.5366
lwrist 3.20724
lhand -51.4401 -61.6246
lfingers 7.12502
lthumb -23.9706 -33.1011
rfemur -5.07569 24.6658 23.9324
rtibia 1.05486
rfoot -12.0254 -22.8038
rtoes 7.30793
lfemur -1.06476 -30.4418 -9.31224
ltibia 0.908806
lfoot -12.2465 36.2629
ltoes -1.52231
